<svg width="103" height="90" viewBox="0 0 103 90" fill="none" xmlns="http://www.w3.org/2000/svg">
<g clip-path="url(#clip0_119_3515)">
<path d="M98.3633 46.0165C96.0787 31.4135 80.5118 21.7193 63.5901 24.3667C46.6707 27.0137 34.8058 40.9982 37.0902 55.6C39.3749 70.2042 54.9442 79.898 71.8636 77.251C73.7009 76.9635 75.4746 76.5423 77.1813 76.0029L77.1916 75.9987C81.171 74.3363 83.6634 78.7957 93.4779 79.7749C95.4938 79.977 95.6488 79.4378 93.9118 78.051C90.7692 75.5481 87.4357 71.1878 89.8069 68.7296C89.8823 68.6678 90.8037 67.7688 91.1521 67.4093C96.7162 61.577 99.5938 53.8816 98.3629 46.014" fill="#FFC700"/>
</g>
<circle cx="42.3377" cy="33.5018" r="26.139" fill="white"/>
<g clip-path="url(#clip1_119_3515)">
<path d="M3.09404 27.5792C4.6493 12.8806 19.7147 2.42403 36.7472 4.22625C53.7773 6.02823 66.3232 19.4052 64.7681 34.1025C63.2127 48.8023 48.145 59.2586 31.1148 57.4567C29.2656 57.261 27.473 56.9285 25.7416 56.4746L25.7312 56.471C21.6739 55.0087 19.4065 59.5865 9.65287 61.0528C7.64954 61.3549 7.46788 60.8241 9.13379 59.3526C12.148 56.6964 15.2604 52.1757 12.7698 49.8385C12.6914 49.7806 11.7265 48.9285 11.3606 48.5868C5.51328 43.0385 2.25638 35.4958 3.0943 27.5767" fill="#FFC700"/>
</g>
<defs>
<clipPath id="clip0_119_3515">
<rect width="66.9965" height="69.3892" fill="white" transform="matrix(-0.999592 0.0285497 0.0285497 0.999592 100.799 18.0259)"/>
</clipPath>
<clipPath id="clip1_119_3515">
<rect width="66.9964" height="69.3892" fill="white"/>
</clipPath>
</defs>
</svg>
