<svg width="366" height="319" viewBox="0 0 366 319" fill="none" xmlns="http://www.w3.org/2000/svg">
<path d="M186.469 185.926C194.242 185.926 200.542 179.625 200.542 171.853C200.542 164.081 194.242 157.78 186.469 157.78C178.697 157.78 172.397 164.081 172.397 171.853C172.397 179.625 178.697 185.926 186.469 185.926Z" fill="#E5E5E5"/>
<path d="M355.331 191.765C356.664 186.121 353.169 180.465 347.524 179.132C341.88 177.8 336.224 181.295 334.891 186.939C333.559 192.583 337.054 198.239 342.698 199.572C348.342 200.905 353.998 197.409 355.331 191.765Z" fill="#E5E5E5"/>
<path d="M33.9939 185.438C37.5963 183.946 39.3072 179.816 37.8151 176.214C36.3231 172.612 32.1932 170.902 28.5907 172.394C24.9882 173.886 23.2774 178.016 24.7695 181.618C26.2615 185.22 30.3914 186.93 33.9939 185.438Z" fill="#E5E5E5"/>
<path d="M112.072 16.7C112.072 19.1974 110.047 21.2227 107.549 21.2227C105.052 21.2227 103.026 19.1974 103.026 16.7C103.026 14.2025 105.052 12.1772 107.549 12.1772C110.047 12.1781 112.072 14.2025 112.072 16.7Z" fill="#E5E5E5"/>
<path d="M241.678 16.6999C241.678 18.8914 239.902 20.6681 237.71 20.6681C235.519 20.6681 233.742 18.8914 233.742 16.6999C233.742 14.5084 235.519 12.7317 237.71 12.7317C239.902 12.7325 241.678 14.5084 241.678 16.6999Z" fill="#E5E5E5"/>
<path d="M223.674 183.787C223.674 185.281 222.462 186.493 220.968 186.493C219.474 186.493 218.263 185.281 218.263 183.787C218.263 182.293 219.474 181.081 220.968 181.081C222.462 181.08 223.674 182.292 223.674 183.787Z" fill="#E5E5E5"/>
<path d="M28.581 112.617C28.581 114.111 27.3696 115.324 25.8756 115.324C24.3808 115.324 23.1695 114.112 23.1695 112.617C23.1695 111.123 24.3808 109.912 25.8756 109.912C27.3696 109.911 28.581 111.123 28.581 112.617Z" fill="#E5E5E5"/>
<path d="M25.8758 226.105C25.8758 228.602 23.8505 230.627 21.353 230.627C18.8556 230.627 16.8303 228.603 16.8303 226.105C16.8303 223.607 18.8547 221.582 21.353 221.582C23.8505 221.582 25.8758 223.606 25.8758 226.105Z" fill="#E5E5E5"/>
<path d="M224.671 256.217C226.003 250.573 222.508 244.917 216.864 243.584C211.22 242.252 205.564 245.747 204.231 251.391C202.898 257.035 206.393 262.691 212.038 264.024C217.682 265.357 223.338 261.862 224.671 256.217Z" fill="#E5E5E5"/>
<path d="M252.36 282.363C254.21 283.704 256.42 284.183 258.518 283.888C258.145 281.803 257.001 279.853 255.151 278.512C253.3 277.171 251.09 276.691 248.993 276.986C249.365 279.07 250.508 281.021 252.36 282.363Z" fill="#D8D8D8"/>
<path d="M264.676 282.363C262.825 283.704 260.615 284.183 258.518 283.888C258.89 281.803 260.034 279.853 261.885 278.512C263.735 277.171 265.945 276.691 268.043 276.986C267.67 279.07 266.526 281.021 264.676 282.363Z" fill="#D8D8D8"/>
<path d="M252.36 274.655C254.21 275.996 256.42 276.476 258.518 276.18C258.145 274.095 257.001 272.145 255.151 270.804C253.3 269.463 251.09 268.983 248.993 269.278C249.365 271.363 250.508 273.314 252.36 274.655Z" fill="#D8D8D8"/>
<path d="M264.676 274.655C262.825 275.996 260.615 276.476 258.518 276.18C258.89 274.095 260.034 272.145 261.885 270.804C263.735 269.463 265.945 268.983 268.043 269.278C267.67 271.363 266.526 273.314 264.676 274.655Z" fill="#D8D8D8"/>
<path d="M252.36 266.947C254.21 268.288 256.42 268.768 258.518 268.473C258.145 266.388 257.001 264.437 255.151 263.096C253.3 261.755 251.09 261.275 248.993 261.571C249.365 263.656 250.508 265.606 252.36 266.947Z" fill="#D8D8D8"/>
<path d="M264.676 266.947C262.825 268.288 260.615 268.768 258.518 268.473C258.89 266.388 260.034 264.437 261.885 263.096C263.735 261.755 265.945 261.275 268.043 261.571C267.67 263.656 266.526 265.606 264.676 266.947Z" fill="#D8D8D8"/>
<path d="M252.36 259.239C254.21 260.58 256.42 261.06 258.518 260.765C258.145 258.68 257.001 256.729 255.151 255.388C253.3 254.047 251.09 253.568 248.993 253.863C249.365 255.948 250.508 257.898 252.36 259.239Z" fill="#D8D8D8"/>
<path d="M264.676 259.239C262.825 260.58 260.615 261.06 258.518 260.765C258.89 258.68 260.034 256.729 261.885 255.388C263.735 254.047 265.945 253.568 268.043 253.863C267.67 255.948 266.526 257.898 264.676 259.239Z" fill="#D8D8D8"/>
<path d="M252.36 251.532C254.21 252.873 256.42 253.352 258.518 253.057C258.145 250.972 257.001 249.022 255.151 247.681C253.3 246.34 251.09 245.86 248.993 246.155C249.365 248.24 250.508 250.191 252.36 251.532Z" fill="#D8D8D8"/>
<path d="M264.676 251.532C262.825 252.873 260.615 253.352 258.518 253.057C258.89 250.972 260.034 249.022 261.885 247.681C263.735 246.34 265.945 245.86 268.043 246.155C267.67 248.24 266.526 250.191 264.676 251.532Z" fill="#D8D8D8"/>
<path d="M252.36 243.824C254.21 245.165 256.42 245.645 258.518 245.349C258.145 243.264 257.001 241.314 255.151 239.973C253.3 238.632 251.09 238.152 248.993 238.447C249.365 240.532 250.508 242.483 252.36 243.824Z" fill="#D8D8D8"/>
<path d="M264.676 243.824C262.825 245.165 260.615 245.645 258.518 245.349C258.89 243.264 260.034 241.314 261.885 239.973C263.735 238.632 265.945 238.152 268.043 238.447C267.67 240.532 266.526 242.483 264.676 243.824Z" fill="#D8D8D8"/>
<path d="M252.36 236.116C254.21 237.457 256.42 237.937 258.518 237.642C258.145 235.557 257.001 233.606 255.151 232.265C253.3 230.924 251.09 230.444 248.993 230.739C249.365 232.825 250.508 234.775 252.36 236.116Z" fill="#D8D8D8"/>
<path d="M264.676 236.116C262.825 237.457 260.615 237.937 258.518 237.642C258.89 235.557 260.034 233.606 261.885 232.265C263.735 230.924 265.945 230.444 268.043 230.739C267.67 232.825 266.526 234.775 264.676 236.116Z" fill="#D8D8D8"/>
<path d="M258.518 287.36V231.381" stroke="#E5E5E5" stroke-width="0.246006" stroke-miterlimit="10"/>
<path d="M256.193 226.083C256.172 228.369 257.062 230.447 258.518 231.986C260.001 230.474 260.928 228.412 260.949 226.125C260.97 223.84 260.079 221.762 258.624 220.223C257.14 221.735 256.213 223.798 256.193 226.083Z" fill="#D8D8D8"/>
<path d="M271.217 314.55H245.818L243.677 288.432H273.359L271.217 314.55Z" fill="#E5E5E5"/>
<path d="M244.039 292.845H272.997L273.359 288.432H243.677L244.039 292.845Z" fill="#D8D8D8"/>
<path d="M275.503 285.386H241.533V291.478H275.503V285.386Z" fill="#E5E5E5"/>
<path d="M293.051 282.363C294.902 283.704 297.111 284.183 299.209 283.888C298.836 281.803 297.693 279.853 295.842 278.512C293.991 277.171 291.781 276.691 289.684 276.986C290.056 279.07 291.199 281.021 293.051 282.363Z" fill="#D8D8D8"/>
<path d="M305.367 282.363C303.517 283.704 301.307 284.183 299.209 283.888C299.582 281.803 300.726 279.853 302.576 278.512C304.427 277.171 306.637 276.691 308.734 276.986C308.362 279.07 307.219 281.021 305.367 282.363Z" fill="#D8D8D8"/>
<path d="M293.051 274.655C294.902 275.996 297.111 276.476 299.209 276.18C298.836 274.095 297.693 272.145 295.842 270.804C293.991 269.463 291.781 268.983 289.684 269.278C290.056 271.363 291.199 273.314 293.051 274.655Z" fill="#D8D8D8"/>
<path d="M305.367 274.655C303.517 275.996 301.307 276.476 299.209 276.18C299.582 274.095 300.726 272.145 302.576 270.804C304.427 269.463 306.637 268.983 308.734 269.278C308.362 271.363 307.219 273.314 305.367 274.655Z" fill="#D8D8D8"/>
<path d="M293.051 266.947C294.902 268.288 297.111 268.768 299.209 268.473C298.836 266.388 297.693 264.437 295.842 263.096C293.991 261.755 291.781 261.275 289.684 261.571C290.056 263.656 291.199 265.606 293.051 266.947Z" fill="#D8D8D8"/>
<path d="M305.367 266.947C303.517 268.288 301.307 268.768 299.209 268.473C299.582 266.388 300.726 264.437 302.576 263.096C304.427 261.755 306.637 261.275 308.734 261.571C308.362 263.656 307.219 265.606 305.367 266.947Z" fill="#D8D8D8"/>
<path d="M299.209 287.36V262.186" stroke="#E5E5E5" stroke-width="0.246006" stroke-miterlimit="10"/>
<path d="M296.865 258.179C296.852 260.465 297.747 262.541 299.209 264.075C300.688 262.559 301.608 260.494 301.622 258.208C301.635 255.923 300.739 253.847 299.279 252.313C297.8 253.829 296.879 255.894 296.865 258.179Z" fill="#D8D8D8"/>
<path d="M311.908 314.55H286.509L284.368 288.432H314.05L311.908 314.55Z" fill="#E5E5E5"/>
<path d="M284.73 292.845H313.688L314.05 288.432H284.368L284.73 292.845Z" fill="#D8D8D8"/>
<path d="M316.194 285.386H282.224V291.478H316.194V285.386Z" fill="#E5E5E5"/>
<path d="M210.937 0H133.738V86.9294H210.937V0Z" fill="#E5E5E5"/>
<path d="M208.333 2.43335H136.341V84.495H208.333V2.43335Z" fill="#F7F7F7"/>
<path d="M136.341 61.7143C141.907 61.7143 149.758 52.1351 153.841 51.5066C157.924 50.8781 160.908 56.6105 165.776 56.6105C170.644 56.6105 179.909 39.415 184.149 39.415C188.388 39.415 190.587 46.4817 195.612 46.4817C200.637 46.4817 204.092 33.9187 208.332 33.9187V84.4951H136.34L136.341 61.7143Z" fill="#EFEFEF"/>
<path d="M156.512 25.1251C156.512 28.4207 153.84 31.0928 150.544 31.0928C147.249 31.0928 144.576 28.4207 144.576 25.1251C144.576 21.8295 147.249 19.1575 150.544 19.1575C153.84 19.1583 156.512 21.8295 156.512 25.1251Z" fill="white"/>
<path d="M270.992 61.6345H228.447V109.541H270.992V61.6345Z" fill="#E5E5E5"/>
<path d="M269.556 62.9763H229.882V108.2H269.556V62.9763Z" fill="#F7F7F7"/>
<path d="M229.882 95.6455C232.95 95.6455 237.276 90.3663 239.527 90.0204C241.776 89.6745 243.421 92.833 246.104 92.833C248.787 92.833 253.892 83.3569 256.229 83.3569C258.566 83.3569 259.778 87.251 262.547 87.251C265.316 87.251 267.22 80.3281 269.556 80.3281V108.2H229.882V95.6455Z" fill="#EFEFEF"/>
<path d="M240.998 75.481C240.998 77.2976 239.525 78.7699 237.709 78.7699C235.892 78.7699 234.42 77.2976 234.42 75.481C234.42 73.6644 235.892 72.1929 237.709 72.1929C239.525 72.1929 240.998 73.6653 240.998 75.481Z" fill="white"/>
<path d="M35.919 308.341H113.16C117.384 308.341 121.182 305.012 121.645 300.905L141.385 125.467C141.847 121.361 138.798 118.031 134.574 118.031H57.3329C53.1095 118.031 49.3109 121.36 48.8486 125.467L29.1083 300.906C28.646 305.012 31.6955 308.341 35.919 308.341Z" stroke="#3E4460" stroke-width="1.65761" stroke-miterlimit="10"/>
<path d="M189.16 313.765H80.9609C75.044 313.765 69.7231 308.968 69.0763 303.051L41.4245 50.296C40.7769 44.379 45.0485 39.5828 50.9655 39.5828H159.165C165.081 39.5828 170.403 44.379 171.05 50.296L198.701 303.051C199.349 308.968 195.077 313.765 189.16 313.765Z" fill="#EFEFEF"/>
<g opacity="0.8">
<mask id="mask0_44_2217" style="mask-type:luminance" maskUnits="userSpaceOnUse" x="41" y="39" width="158" height="275">
<path d="M189.16 313.765H80.9609C75.044 313.765 69.7231 308.968 69.0763 303.051L41.4245 50.296C40.7769 44.379 45.0485 39.5828 50.9655 39.5828H159.165C165.081 39.5828 170.403 44.379 171.05 50.296L198.701 303.051C199.349 308.968 195.077 313.765 189.16 313.765Z" fill="white"/>
</mask>
<g mask="url(#mask0_44_2217)">
<path d="M51.4641 181.374C51.0983 182.304 50.5737 183.168 49.956 183.957C49.3391 184.75 48.5925 185.439 47.7711 186.019C46.9514 186.603 46.0285 187.045 45.0608 187.313C44.0981 187.614 43.0838 187.676 42.0911 187.67C42.0836 187.67 42.0778 187.665 42.0778 187.659C42.0778 187.654 42.0836 187.649 42.0911 187.648C43.0813 187.559 44.0723 187.458 45.0043 187.126C45.9495 186.847 46.8358 186.393 47.6406 185.83C48.4545 185.278 49.177 184.594 49.8163 183.843C50.4473 183.085 51.001 182.254 51.4358 181.362C51.4408 181.352 51.4508 181.346 51.4583 181.35C51.4658 181.354 51.4683 181.364 51.4641 181.374Z" fill="#ADB4C9"/>
<path d="M72.3043 107.745C72.616 109.1 72.8463 110.475 72.9818 111.861C73.1066 113.244 73.1631 114.655 72.8754 116.038C72.72 116.714 72.4664 117.433 71.8753 117.893C71.2584 118.317 70.5392 118.434 69.8276 118.439C68.3835 118.415 67.0907 117.701 65.9267 116.958C63.6005 115.398 61.5911 113.449 59.6124 111.499C57.6528 109.524 55.7647 107.482 53.9157 105.406C53.9016 105.39 53.8941 105.374 53.8991 105.372C53.9041 105.369 53.9174 105.378 53.9307 105.392C55.8495 107.403 57.765 109.416 59.7487 111.36C61.7349 113.294 63.7601 115.219 66.0523 116.765C67.1954 117.507 68.4624 118.198 69.8292 118.223C70.4877 118.229 71.221 118.096 71.7506 117.73C72.2793 117.329 72.5387 116.653 72.6983 115.997C72.9943 114.654 72.9594 113.249 72.858 111.872C72.7466 110.49 72.547 109.113 72.2735 107.751C72.2668 107.72 72.2685 107.695 72.2777 107.695C72.2868 107.695 72.2976 107.716 72.3043 107.745Z" fill="#E28E33"/>
<path d="M63.7679 190.663C63.915 190.151 64.0613 189.645 64.2068 189.138C64.344 188.628 64.497 188.123 64.6209 187.611C64.7447 187.1 64.8719 186.59 64.9617 186.073C65.0498 185.559 65.1305 185.036 65.049 184.514C65.049 184.514 65.0523 184.506 65.0582 184.504C65.0631 184.503 65.069 184.509 65.069 184.509C65.2477 185.02 65.2061 185.576 65.1546 186.102C65.0806 186.631 64.9783 187.155 64.8445 187.67C64.7015 188.182 64.5593 188.694 64.3797 189.193C64.206 189.694 64.0156 190.189 63.7969 190.673C63.7945 190.679 63.7861 190.681 63.7778 190.677C63.7703 190.674 63.7662 190.668 63.7679 190.663Z" fill="#ADB4C9"/>
<path d="M67.5213 301.73L81.0279 301.683C81.0279 301.683 98.4138 307.652 100.7 309.223C102.986 310.793 103.341 311.981 103.341 311.981L67.5579 312.106L67.5213 301.73Z" fill="#FFC700"/>
<path d="M68.7628 310.528C71.2278 310.454 73.6937 310.41 76.1588 310.377C78.6238 310.331 81.0897 310.334 83.5547 310.309C86.0206 310.294 88.4857 310.308 90.9507 310.314C93.4158 310.338 95.8817 310.362 98.3475 310.433C98.3667 310.434 98.3808 310.442 98.38 310.452C98.3791 310.461 98.365 310.467 98.3475 310.468C95.8825 310.557 93.4174 310.598 90.9515 310.64C88.4865 310.662 86.0214 310.694 83.5556 310.694C81.0905 310.688 78.6246 310.707 76.1588 310.679C73.6937 310.662 71.2278 310.635 68.7619 310.579C68.7337 310.578 68.7121 310.566 68.7137 310.552C68.7162 310.539 68.737 310.529 68.7628 310.528Z" fill="#3E4460"/>
<path d="M103.347 311.982L67.5647 312.107L67.569 313.321L103.352 313.196L103.347 311.982Z" fill="#3E4460"/>
<path d="M86.1653 303.82C85.8777 303.978 85.6133 304.173 85.3639 304.381C85.1194 304.595 84.8792 304.814 84.6672 305.061C84.4593 305.31 84.2473 305.557 84.0719 305.832C83.8807 306.098 83.7194 306.382 83.544 306.665C83.544 306.665 83.5381 306.667 83.534 306.665C83.5298 306.663 83.5282 306.657 83.5282 306.657C83.6313 306.341 83.7668 306.034 83.9339 305.745C84.1018 305.456 84.3022 305.185 84.5233 304.933C84.7528 304.688 84.9947 304.453 85.2707 304.262C85.5434 304.068 85.8361 303.898 86.1562 303.796C86.1562 303.796 86.1645 303.8 86.167 303.806C86.1686 303.812 86.1653 303.82 86.1653 303.82Z" fill="#3E4460"/>
<path d="M89.0756 304.844C88.7879 305.003 88.5236 305.197 88.2742 305.405C88.0289 305.619 87.7895 305.838 87.5775 306.085C87.3696 306.334 87.1576 306.581 86.9822 306.857C86.791 307.122 86.6297 307.406 86.4543 307.689C86.4543 307.689 86.4484 307.691 86.4443 307.689C86.4401 307.687 86.4385 307.681 86.4385 307.681C86.5416 307.365 86.6771 307.059 86.8442 306.769C87.0121 306.48 87.2125 306.209 87.4336 305.957C87.6639 305.713 87.905 305.477 88.181 305.286C88.4537 305.092 88.7464 304.922 89.0656 304.821C89.0656 304.821 89.0748 304.824 89.0764 304.831C89.0798 304.836 89.0756 304.844 89.0756 304.844Z" fill="#3E4460"/>
<path d="M91.9885 305.867C91.7008 306.026 91.4365 306.221 91.187 306.428C90.9426 306.642 90.7023 306.862 90.4903 307.109C90.2825 307.357 90.0705 307.605 89.8951 307.88C89.7047 308.145 89.5426 308.43 89.3671 308.712C89.3671 308.712 89.3613 308.715 89.3572 308.712C89.353 308.711 89.3513 308.705 89.3513 308.705C89.4544 308.389 89.5899 308.082 89.7571 307.793C89.925 307.503 90.1254 307.232 90.3465 306.98C90.576 306.736 90.8179 306.501 91.0939 306.31C91.3666 306.116 91.6593 305.945 91.9793 305.844C91.9793 305.844 91.9877 305.847 91.9902 305.854C91.9918 305.86 91.9885 305.867 91.9885 305.867Z" fill="#3E4460"/>
<path d="M42.6431 172.188L17.4223 303.08H33.7739L63.1724 191.151L66.3043 301.887H83.7467L89.1623 168.11L42.6431 172.188Z" fill="#3E4460"/>
<path d="M54.7971 101.835L39.5088 101.031C39.5088 101.031 28.1188 142.457 39.0499 177.579C40.5788 184.413 90.549 184.058 90.5482 177.779C85.1126 144.676 86.5052 104.524 86.5052 104.524L67.8365 101.835H54.7971Z" fill="#FFC700"/>
<path d="M71.0512 96.8069H67.9718C60.6955 96.8069 54.7969 90.9082 54.7969 83.632V69.5159C54.7969 61.3891 61.3848 54.8013 69.5115 54.8013C77.6383 54.8013 84.2262 61.3891 84.2262 69.5159V83.632C84.2262 90.9082 78.3275 96.8069 71.0512 96.8069Z" fill="#FFD4D9"/>
<path d="M70.0677 74.4783H54.7969V104.054H70.0677V74.4783Z" fill="#FFD4D9"/>
<path d="M69.0634 116.255C72.2526 116.255 70.0677 106.396 70.0677 104.054H54.7969C54.7969 106.396 65.8742 116.255 69.0634 116.255Z" fill="#FFD4D9"/>
<path d="M69.5115 96.8068C69.5115 96.8068 60.7521 96.0403 58.4492 87.8728L69.5115 96.8068Z" fill="#FFD4D9"/>
<path d="M69.4858 96.8224C68.2321 96.7118 67 96.3959 65.8211 95.9494C64.6389 95.5038 63.5273 94.8736 62.5164 94.1129C61.9992 93.7446 61.5528 93.2915 61.0997 92.8484C60.6998 92.3579 60.255 91.8989 59.9374 91.3486C59.2124 90.3043 58.7826 89.0955 58.4426 87.8925C58.4401 87.8834 58.4426 87.875 58.4492 87.8734C58.4559 87.8725 58.4625 87.8775 58.4659 87.8859C58.914 89.0539 59.3779 90.222 60.127 91.2205C60.4454 91.7551 60.8927 92.1957 61.2884 92.6688C61.739 93.0953 62.1763 93.5334 62.6801 93.8984C63.6578 94.6608 64.7536 95.266 65.8993 95.7524C67.0491 96.2254 68.2537 96.5863 69.4883 96.7875C69.5025 96.7891 69.5124 96.7991 69.5108 96.8091C69.51 96.8166 69.4991 96.8232 69.4858 96.8224Z" fill="#3E4460"/>
<path d="M80.8041 76.3597C80.2886 76.3597 79.8704 75.9415 79.8704 75.4261V74.6845C79.8704 74.169 80.2886 73.75 80.8041 73.75C81.3195 73.75 81.7377 74.1682 81.7377 74.6845V75.4261C81.7385 75.9424 81.3203 76.3597 80.8041 76.3597Z" fill="#3E4460"/>
<path d="M70.4459 76.3597C69.9296 76.3597 69.5123 75.9415 69.5123 75.4261V74.6845C69.5123 74.169 69.9304 73.75 70.4459 73.75C70.9614 73.75 71.3795 74.1682 71.3795 74.6845V75.4261C71.3795 75.9424 70.9614 76.3597 70.4459 76.3597Z" fill="#3E4460"/>
<path d="M71.4563 73.0901C71.196 72.933 70.9142 72.7509 70.6357 72.6129C70.3547 72.4716 70.0712 72.3502 69.7794 72.2563C69.49 72.1448 69.1858 72.1041 68.8732 72.0733C68.5581 72.0343 68.2388 72.0667 67.8921 72.0775L67.8738 72.0783C67.7782 72.0817 67.6992 72.006 67.6959 71.9112C67.6943 71.8464 67.7275 71.789 67.7799 71.7583C68.0983 71.567 68.46 71.4207 68.8449 71.3741C69.229 71.306 69.6256 71.3492 70.0063 71.4299C70.3863 71.5196 70.7488 71.6768 71.0655 71.8929C71.3839 72.1149 71.6616 72.3585 71.8869 72.7019C71.9751 72.8374 71.9376 73.0186 71.8021 73.1068C71.7048 73.1708 71.5835 73.1691 71.4904 73.1126L71.4563 73.0901Z" fill="#3E4460"/>
<path d="M82.8768 73.2512C82.6598 73.0126 82.4379 72.8022 82.1826 72.631C81.9291 72.4589 81.6505 72.3183 81.3554 72.202C80.7635 71.9534 80.0967 71.886 79.385 71.7921L79.3792 71.7912C79.2836 71.7788 79.2171 71.6915 79.2296 71.5959C79.2387 71.5302 79.2828 71.4778 79.341 71.4562C79.6968 71.3232 80.0759 71.2558 80.4633 71.24C80.8524 71.2168 81.2448 71.2874 81.6323 71.3905C82.0155 71.5078 82.3888 71.6956 82.6989 71.97C83.0074 72.2427 83.2668 72.5861 83.3906 72.981C83.4397 73.1364 83.3532 73.3019 83.1977 73.3509C83.0847 73.3867 82.9658 73.3501 82.891 73.2686L82.8768 73.2512Z" fill="#3E4460"/>
<path d="M77.318 76.3596L79.5511 82.5725C79.7357 83.0863 79.4189 83.6375 78.8844 83.7456C77.9998 83.9252 76.6155 84.0283 75.1373 83.4605" fill="#FFD4D9"/>
<path d="M77.3414 76.3722C77.7205 77.2909 78.0797 78.2162 78.4322 79.144L79.4665 81.9358C79.5504 82.1778 79.6386 82.3831 79.7159 82.6558C79.7791 82.936 79.7109 83.2403 79.5413 83.4689C79.3783 83.7009 79.0965 83.8497 78.8346 83.8813C78.586 83.9262 78.3358 83.9577 78.0839 83.9769C77.0787 84.0417 76.0553 83.8854 75.1441 83.4772C75.1374 83.4739 75.1333 83.4664 75.1366 83.4606C75.1391 83.4548 75.1466 83.4523 75.1524 83.4539C76.0977 83.7541 77.092 83.8555 78.0639 83.7482C78.5386 83.6734 79.0923 83.6859 79.3284 83.3159C79.4515 83.143 79.4972 82.9194 79.4498 82.7148C79.39 82.5103 79.2877 82.2559 79.2112 82.0289L78.2318 79.2172C77.9126 78.2777 77.6 77.3349 77.3073 76.3855C77.304 76.3747 77.309 76.3639 77.319 76.3606C77.3281 76.3572 77.3373 76.3631 77.3414 76.3722Z" fill="#3E4460"/>
<path d="M71.7729 84.103L78.0241 87.6206C77.3706 93.0595 70.7827 87.6389 71.7729 84.103Z" fill="white"/>
<path d="M54.7971 73.0809C54.7971 73.0809 66.8546 74.2806 68.9505 62.5681C68.9505 62.5681 73.8599 68.732 84.2272 68.732C94.5946 68.732 93.5154 58.5608 87.4438 54.8005C80.7404 50.6494 71.2934 50.4856 65.4986 52.8276C65.4986 52.8276 62.9712 50.6086 60.9368 51.3486C58.9024 52.0885 59.3339 55.1089 59.3339 55.1089C59.3339 55.1089 57.4234 54.1071 56.4981 55.2935C55.6659 56.361 57.238 58.5608 58.0395 58.6839C53.6589 58.2765 50.7773 64.1136 54.7971 73.0809Z" fill="#3E4460"/>
<path d="M69.012 62.1575C69.012 62.1575 69.6281 65.7125 66.6077 69.9658" stroke="#3E4460" stroke-width="0.244011" stroke-miterlimit="10" stroke-linecap="round"/>
<path d="M69.0634 61.6128C70.4451 66.4672 76.4394 70.2118 81.9407 70.2118" stroke="#3E4460" stroke-width="0.244011" stroke-miterlimit="10" stroke-linecap="round"/>
<path d="M58.3812 76.2436C59.112 77.9013 59.0771 80.1876 57.0269 81.2294C55.3284 82.0932 52.7345 80.9342 51.958 78.1125C51.4774 76.3658 51.7875 73.9057 53.4445 73.1741C55.2062 72.3984 57.6504 74.5866 58.3812 76.2436Z" fill="#FFD4D9"/>
<path d="M53.6588 75.1485C55.2833 73.9712 58.2098 78.5022 56.0033 79.7593L53.6588 75.1485Z" fill="#FFD4D9"/>
<path d="M53.6605 75.1321C54.1443 74.7405 54.8568 74.945 55.3066 75.2917C55.7896 75.635 56.1505 76.1156 56.4364 76.6252C56.7133 77.1398 56.9029 77.7185 56.8904 78.3179C56.8887 78.9132 56.562 79.5309 56.0149 79.7645C56.0116 79.767 56.0058 79.7645 56.0033 79.7595C56.0008 79.7545 56.0041 79.7462 56.0041 79.7462C56.4938 79.4278 56.7274 78.8658 56.6983 78.3163C56.695 77.7626 56.4921 77.223 56.2369 76.7316C55.9792 76.237 55.6267 75.788 55.2002 75.4339C54.7837 75.0913 54.1892 74.8544 53.6779 75.157C53.6721 75.1595 53.663 75.1562 53.6588 75.1487C53.6538 75.142 53.6546 75.1345 53.6605 75.1321Z" fill="#EAA0AB"/>
<path d="M25.9763 126.093C25.9763 126.093 23.4896 139.495 23.8006 144.886C24.1115 150.277 79.8541 147.432 89.6993 145.634L88.0449 137.748C88.0449 137.748 48.1418 135.536 39.157 135.986L40.8714 128.863L25.9763 126.093Z" fill="#FFD4D9"/>
<path d="M88.0449 129.407C88.0449 129.407 92.8927 142.146 95.963 146.588C99.0333 151.03 141.797 122.31 149.647 117.207L149.524 107.635C149.524 107.635 111.845 126.143 104.406 131.2L101.067 123.415L88.0449 129.407Z" fill="#FFD4D9"/>
<path d="M39.5088 101.031C39.5088 101.031 46.4276 105.51 42.476 131.633L24.9995 127.216C25.7195 120.575 27.2002 98.8486 39.5088 101.031Z" fill="#FFC700"/>
<path d="M42.166 105.471C43.3906 108.977 43.719 112.722 43.8188 116.412C43.8836 120.117 43.6217 123.818 43.1944 127.493C43.1071 128.188 43.0389 128.885 42.9333 129.578L42.6108 131.835L35.761 130.08C32.1844 129.147 28.6086 128.214 25.042 127.243C25.0145 127.236 24.9954 127.223 24.9987 127.216C25.0021 127.209 25.0237 127.208 25.0486 127.214C28.6485 128.053 32.2384 128.932 35.8283 129.81L42.3389 131.431L42.6041 129.533C42.708 128.842 42.777 128.147 42.8668 127.454C43.3191 123.79 43.561 120.103 43.5594 116.414C43.5028 112.737 43.2384 109.014 42.1236 105.484C42.1111 105.443 42.1111 105.409 42.1236 105.408C42.136 105.408 42.1535 105.434 42.166 105.471Z" fill="#3E4460"/>
<path d="M86.1385 104.634C86.1385 104.634 94.3808 104.622 105.293 128.684L88.2302 134.498C85.2181 128.536 74.6271 109.508 86.1385 104.634Z" fill="#FFC700"/>
<path d="M86.5284 131.169C86.4096 129.558 86.3281 127.946 86.2591 126.334C86.1809 124.722 86.1518 123.109 86.1103 121.495C86.0745 119.881 86.0753 118.267 86.0878 116.653C86.1186 115.039 86.1568 113.423 86.3015 111.813C86.3023 111.801 86.3098 111.792 86.3181 111.793C86.3256 111.794 86.3314 111.804 86.3314 111.815C86.3231 113.429 86.3414 115.041 86.3672 116.653L86.4395 121.489L86.5176 126.327L86.5717 131.166C86.5717 131.185 86.5617 131.2 86.5501 131.199C86.5393 131.2 86.5293 131.186 86.5284 131.169Z" fill="#3E4460"/>
<path d="M42.8383 193.726C41.2354 202.374 39.5993 211.016 37.9515 219.655C36.317 228.297 34.6284 236.928 32.9698 245.565C31.3021 254.201 29.601 262.829 27.9092 271.46C26.1965 280.086 24.4839 288.713 22.7189 297.33C22.7047 297.396 22.6856 297.445 22.6756 297.439C22.6665 297.433 22.6681 297.382 22.6789 297.322C24.2652 288.671 25.9047 280.03 27.5434 271.389C29.2036 262.752 30.8539 254.115 32.5375 245.482C34.231 236.851 35.8946 228.215 37.6114 219.588C39.3149 210.961 41.0301 202.334 42.7793 193.715C42.7993 193.617 42.8275 193.543 42.8425 193.552C42.8574 193.56 42.855 193.636 42.8383 193.726Z" fill="#ADB4C9"/>
<path d="M66.3634 193.722C66.7358 202.5 67.0734 211.279 67.4001 220.058C67.7402 228.837 68.0253 237.617 68.3413 246.398C68.6472 255.178 68.9191 263.958 69.2017 272.739C69.462 281.521 69.723 290.303 69.93 299.087C69.9317 299.155 69.9242 299.206 69.9126 299.202C69.9026 299.199 69.8926 299.149 69.8901 299.088C69.501 290.31 69.166 281.532 68.8309 272.753C68.5175 263.972 68.1933 255.194 67.9031 246.413C67.6229 237.632 67.312 228.852 67.0559 220.07C66.7866 211.29 66.5288 202.508 66.3052 193.725C66.3027 193.625 66.3143 193.547 66.3301 193.553C66.3451 193.556 66.3592 193.631 66.3634 193.722Z" fill="#ADB4C9"/>
<path d="M149.524 107.635C149.524 107.635 154.782 103.926 155.768 104.02C156.754 104.114 158.49 105.803 159.429 105.827C160.368 105.851 170.758 106.007 172.073 106.086C173.387 106.164 175.015 107.166 175.015 108.042C175.015 108.919 173.575 109.545 171.478 109.545C169.381 109.545 162.872 109.733 162.872 109.733C162.872 109.733 163.817 112.734 162.659 113.954C162.659 113.954 163.341 115.991 161.745 116.743C161.745 116.743 161.902 119.215 159.68 119.246C157.458 119.278 151.143 120.578 148.411 118.016" fill="#FFD4D9"/>
<path d="M161.711 117.221C160.989 117.183 160.269 117.121 159.55 117.045C158.83 116.976 158.115 116.872 157.399 116.766C156.841 116.675 156.286 116.579 155.733 116.403L155.743 116.405C155.568 116.359 155.417 116.27 155.286 116.16C154.673 115.649 154.612 114.732 154.969 114.104C154.972 114.099 154.978 114.097 154.983 114.1C154.988 114.102 154.989 114.108 154.988 114.112C154.723 114.78 154.853 115.592 155.409 116.009C155.524 116.101 155.656 116.172 155.791 116.203L155.8 116.206C156.324 116.358 156.885 116.442 157.435 116.538C158.144 116.662 158.859 116.753 159.572 116.865C160.284 116.973 160.997 117.081 161.713 117.19C161.721 117.192 161.727 117.199 161.725 117.207C161.725 117.216 161.718 117.221 161.711 117.221Z" fill="#E2A6AF"/>
<path d="M162.643 113.968C161.921 113.934 161.2 113.871 160.481 113.795C159.761 113.724 159.045 113.617 158.329 113.505C157.614 113.383 156.902 113.251 156.204 113.007L155.98 112.913L155.993 112.918C155.314 112.543 155.307 111.609 155.764 111.148C155.768 111.144 155.774 111.144 155.778 111.148C155.782 111.153 155.782 111.158 155.78 111.163C155.381 111.657 155.548 112.514 156.043 112.744L156.045 112.745L156.057 112.749L156.271 112.824C156.943 113.042 157.663 113.15 158.369 113.279C159.077 113.407 159.792 113.502 160.506 113.616C161.219 113.723 161.931 113.831 162.648 113.939C162.656 113.941 162.662 113.948 162.661 113.957C162.657 113.963 162.651 113.968 162.643 113.968Z" fill="#E2A6AF"/>
<path d="M162.812 109.739C162.499 109.77 162.187 109.783 161.873 109.79C161.56 109.804 161.247 109.789 160.934 109.79C160.621 109.786 160.308 109.764 159.996 109.748C159.684 109.719 159.371 109.692 159.062 109.635C159.062 109.635 159.058 109.63 159.059 109.624C159.059 109.619 159.064 109.614 159.064 109.614C159.379 109.574 159.692 109.563 160.005 109.551C160.318 109.551 160.629 109.546 160.941 109.558C161.253 109.576 161.565 109.577 161.876 109.607C162.188 109.63 162.5 109.659 162.813 109.707C162.813 109.707 162.819 109.715 162.818 109.723C162.818 109.733 162.812 109.739 162.812 109.739Z" fill="#E2A6AF"/>
<path d="M150.006 113C151.519 112.78 153.011 112.173 154.096 111.105C154.287 110.897 154.482 110.692 154.639 110.457C154.836 110.212 154.876 110.08 155.216 109.51C155.244 109.629 155.272 109.761 155.304 109.867L155.349 110.033L155.379 110.116C155.415 110.227 155.463 110.335 155.509 110.444C155.611 110.656 155.716 110.868 155.852 111.06C156.114 111.449 156.45 111.788 156.847 112.031C157.159 112.233 157.511 112.366 157.876 112.441C158.06 112.472 158.243 112.514 158.431 112.511L158.706 112.524C158.703 112.54 158.764 112.47 158.792 112.394C158.994 111.703 158.954 110.897 158.966 110.138C158.973 109.37 158.945 108.594 159.013 107.822C159.042 107.437 159.086 107.054 159.096 106.671C159.097 106.306 159.088 105.865 158.756 105.642C158.747 105.636 158.742 105.626 158.746 105.621C158.749 105.617 158.758 105.619 158.767 105.625C159.129 105.837 159.165 106.303 159.179 106.672C159.186 107.061 159.158 107.447 159.142 107.83C159.102 108.597 159.149 109.364 159.162 110.137C159.153 110.912 159.222 111.677 159 112.475C158.954 112.566 158.919 112.71 158.722 112.749L158.419 112.738C158.22 112.741 158.025 112.7 157.829 112.667C157.44 112.588 157.059 112.446 156.724 112.227C156.3 111.96 155.944 111.595 155.67 111.182C155.527 110.978 155.415 110.756 155.311 110.532C155.264 110.418 155.214 110.304 155.176 110.186L155.142 110.083L155.137 110.064C155.177 109.974 154.975 110.378 154.8 110.575C154.632 110.817 154.425 111.025 154.221 111.234C153.076 112.316 151.538 112.886 150.007 113.03C149.99 113.031 149.975 113.025 149.975 113.016C149.978 113.009 149.99 113.002 150.006 113Z" fill="#E2A6AF"/>
<path d="M159.67 119.254C159.214 119.269 158.758 119.259 158.302 119.234C157.847 119.212 157.392 119.162 156.94 119.096C156.488 119.026 156.038 118.927 155.606 118.767C155.393 118.682 155.181 118.581 155 118.433C154.816 118.294 154.683 118.057 154.721 117.825L154.727 117.82L154.732 117.827C154.727 118.317 155.246 118.532 155.64 118.676C156.065 118.824 156.512 118.909 156.958 118.982C157.405 119.057 157.857 119.1 158.309 119.144C158.761 119.184 159.215 119.215 159.67 119.238C159.675 119.238 159.679 119.242 159.679 119.246C159.679 119.246 159.675 119.254 159.67 119.254Z" fill="#E2A6AF"/>
<path d="M86.8717 137.8C86.8717 137.8 92.1294 134.091 93.1154 134.185C94.1015 134.279 95.8382 135.968 96.7769 135.992C97.7155 136.016 108.106 136.173 109.421 136.251C110.735 136.329 112.362 137.331 112.362 138.207C112.362 139.084 110.922 139.71 108.825 139.71C106.729 139.71 100.219 139.898 100.219 139.898C100.219 139.898 101.164 142.899 100.006 144.12C100.006 144.12 100.689 146.157 99.0923 146.909C99.0923 146.909 99.2486 149.381 97.0263 149.413C94.804 149.444 90.7668 149.976 87.0746 145.282" fill="#FFD4D9"/>
<path d="M86.9465 137.728C88.0173 136.971 89.104 136.235 90.2163 135.537C90.7734 135.189 91.337 134.853 91.9223 134.551C92.2141 134.398 92.5151 134.261 92.8385 134.164C93.1935 134.055 93.5252 134.226 93.8204 134.357C94.4165 134.653 94.9502 135.039 95.5081 135.378C95.7866 135.547 96.0701 135.71 96.3677 135.822C96.6579 135.953 96.9805 135.91 97.3147 135.925L101.25 135.993L109.12 136.137C109.783 136.121 110.461 136.314 111.054 136.615C111.627 136.93 112.256 137.323 112.457 138.049C112.533 138.429 112.319 138.797 112.053 139.015C111.784 139.242 111.469 139.382 111.152 139.494C110.513 139.708 109.847 139.79 109.185 139.818L100.366 140.003C100.637 141.086 101.038 143.011 100.121 144.139C100.308 144.809 100.36 145.8 99.8205 146.462C99.7257 146.574 99.6243 146.68 99.5046 146.765C99.4497 146.814 99.389 146.853 99.3241 146.886L99.1911 146.961C99.1969 147.482 99.0656 148.221 98.6773 148.724C98.2974 149.268 97.6007 149.502 96.9771 149.492C95.7409 149.528 94.4797 149.556 93.2484 149.322C92.0229 149.079 90.8374 148.61 89.8056 147.907C88.7731 147.205 87.8768 146.319 87.1145 145.338C87.0887 145.307 87.0729 145.281 87.0787 145.279C87.0845 145.277 87.107 145.297 87.1311 145.326C87.9109 146.291 88.8171 147.158 89.8505 147.841C90.8839 148.524 92.0595 148.972 93.2717 149.2C94.4913 149.418 95.7326 149.379 96.9755 149.333C97.5774 149.334 98.1951 149.117 98.5385 148.62C98.7147 148.381 98.8328 148.101 98.9068 147.809C98.9434 147.664 98.9708 147.514 98.9849 147.363L99.0024 147.137C99.0032 147.047 99.0082 147.028 98.9999 146.855L99.2277 146.724C99.2867 146.694 99.3416 146.658 99.3898 146.613C99.4971 146.537 99.586 146.442 99.67 146.342C99.9111 146.052 100.017 145.67 100.047 145.292C100.062 145.101 100.056 144.907 100.031 144.715C100.021 144.62 100.003 144.524 99.9851 144.429L99.9527 144.289L99.8978 144.1L100.094 143.847C100.146 143.778 100.177 143.695 100.22 143.621C100.292 143.464 100.354 143.298 100.387 143.124C100.47 142.781 100.488 142.419 100.476 142.061C100.466 141.702 100.427 141.342 100.364 140.986C100.333 140.808 100.298 140.631 100.257 140.455L100.192 140.191L100.077 139.792L109.18 139.588C109.826 139.563 110.475 139.484 111.083 139.282C111.383 139.178 111.678 139.045 111.911 138.846C112.144 138.651 112.299 138.373 112.242 138.09C112.096 137.517 111.506 137.1 110.959 136.811C110.384 136.522 109.766 136.339 109.112 136.354L101.247 136.175L97.3147 136.082C96.9988 136.066 96.6429 136.106 96.3204 135.963C96.0053 135.84 95.7193 135.672 95.4383 135.499C94.8787 135.153 94.3483 134.763 93.7697 134.469C93.4845 134.337 93.1677 134.181 92.8709 134.277C92.565 134.365 92.2649 134.498 91.9739 134.646C91.3903 134.938 90.8241 135.268 90.2637 135.608C89.1455 136.292 88.0497 137.013 86.9681 137.754C86.9191 137.788 86.8767 137.808 86.875 137.8C86.8692 137.791 86.9016 137.76 86.9465 137.728Z" fill="#E2A6AF"/>
<path d="M50.8579 181.847C50.4921 182.777 49.9675 183.642 49.3498 184.431C48.7329 185.223 47.9863 185.912 47.1649 186.492C46.3451 187.076 45.4223 187.518 44.4537 187.786C43.491 188.087 42.4775 188.149 41.484 188.143C41.4766 188.143 41.4707 188.138 41.4707 188.133C41.4716 188.128 41.4766 188.123 41.484 188.122C42.4742 188.033 43.4652 187.933 44.3972 187.6C45.3425 187.321 46.2279 186.866 47.0327 186.304C47.8466 185.751 48.5691 185.068 49.2084 184.317C49.8394 183.558 50.3931 182.728 50.8279 181.836C50.8329 181.826 50.8429 181.82 50.8504 181.824C50.8595 181.827 50.862 181.837 50.8579 181.847Z" fill="#ADB4C9"/>
<path d="M71.6991 108.217C72.0109 109.573 72.2403 110.948 72.3767 112.334C72.5014 113.717 72.5587 115.128 72.2703 116.51C72.1148 117.186 71.8612 117.906 71.2701 118.366C70.6532 118.789 69.9341 118.907 69.2224 118.912C67.7783 118.887 66.4855 118.174 65.3216 117.431C62.9953 115.871 60.9859 113.922 59.0072 111.972C57.0476 109.997 55.1596 107.955 53.3106 105.879C53.2964 105.863 53.2889 105.847 53.2939 105.845C53.2989 105.842 53.3122 105.85 53.3255 105.865C55.2444 107.876 57.1599 109.889 59.1444 111.833C61.1306 113.767 63.1558 115.691 65.4479 117.238C66.5911 117.98 67.8581 118.671 69.2257 118.696C69.8842 118.702 70.6175 118.569 71.1471 118.203C71.6767 117.802 71.9352 117.126 72.0948 116.47C72.3908 115.127 72.3559 113.722 72.2545 112.344C72.1431 110.963 71.9435 109.585 71.67 108.224C71.6633 108.193 71.665 108.168 71.6742 108.168C71.6808 108.168 71.6916 108.189 71.6991 108.217Z" fill="#E28E33"/>
<path d="M63.1615 191.136C63.3087 190.625 63.455 190.119 63.6005 189.612C63.7377 189.103 63.8906 188.598 64.0153 188.086C64.1392 187.575 64.2664 187.064 64.3562 186.548C64.4443 186.033 64.525 185.51 64.4435 184.988C64.4435 184.988 64.4468 184.98 64.4526 184.978C64.4576 184.977 64.4635 184.982 64.4635 184.982C64.6422 185.494 64.5998 186.049 64.5491 186.576C64.4751 187.105 64.3728 187.629 64.239 188.143C64.096 188.656 63.9546 189.168 63.7742 189.667C63.6005 190.169 63.4101 190.664 63.1914 191.148C63.1889 191.154 63.1806 191.155 63.1731 191.152C63.164 191.148 63.1598 191.141 63.1615 191.136Z" fill="#ADB4C9"/>
</g>
</g>
<path d="M189.16 313.765H80.9609C75.044 313.765 69.7231 308.968 69.0763 303.051L41.4245 50.296C40.7769 44.379 45.0485 39.5828 50.9655 39.5828H159.165C165.081 39.5828 170.403 44.379 171.05 50.296L198.701 303.051C199.349 308.968 195.077 313.765 189.16 313.765Z" stroke="#3E4460" stroke-width="1.65761" stroke-miterlimit="10"/>
<path d="M161.239 78.0469L79.9167 237.512" stroke="white" stroke-width="0.900887" stroke-miterlimit="10" stroke-linecap="round"/>
<path d="M141.432 80.073L88.6528 183.565" stroke="white" stroke-width="0.900887" stroke-miterlimit="10" stroke-linecap="round"/>
<path d="M141.432 165.59L88.6528 269.082" stroke="white" stroke-width="0.900887" stroke-miterlimit="10" stroke-linecap="round"/>
<path d="M1.00004 314.812H364.693" stroke="#3E4460" stroke-width="0.831383" stroke-miterlimit="10" stroke-linecap="round"/>
<path d="M346.648 316.507V315.059L346.091 315.259L345.966 316.332L346.103 316.669L346.648 316.507Z" fill="#3E4460"/>
<path d="M325.57 305.941L325.554 309.622C327.197 314.002 332.85 317.109 332.85 317.109C338.141 320.403 347.01 318.906 346.639 316.32C345.979 311.719 340.6 307.523 340.508 305.367C340.508 305.367 326.774 301.993 325.57 305.941Z" fill="#3E4460"/>
<path d="M325.724 304.975C324.228 309.881 332.876 315.471 332.876 315.471C338.167 318.765 347.011 317.391 346.639 314.805C345.979 310.205 340.6 306.008 340.508 303.852C340.508 303.852 326.929 301.026 325.724 304.975Z" fill="#FFC700"/>
<path d="M342.768 311.264C341.867 311.071 340.944 311.004 340.025 310.957C339.105 310.923 338.184 310.902 337.262 310.938C336.341 310.96 335.42 311.005 334.5 311.066C333.579 311.132 332.659 311.197 331.735 311.264C331.727 311.264 331.721 311.259 331.721 311.252C331.72 311.246 331.725 311.241 331.732 311.24C332.642 311.068 333.56 310.943 334.482 310.839C335.404 310.759 336.329 310.68 337.257 310.669C338.184 310.656 339.115 310.661 340.039 310.748C340.963 310.83 341.891 310.947 342.779 311.231C342.789 311.235 342.794 311.246 342.79 311.255C342.787 311.261 342.777 311.266 342.768 311.264Z" fill="#3E4460"/>
<path d="M341.293 308.958C340.391 308.765 339.469 308.697 338.551 308.651C337.63 308.617 336.709 308.596 335.788 308.631C334.867 308.652 333.946 308.698 333.025 308.759C332.105 308.825 331.185 308.89 330.26 308.957C330.253 308.957 330.247 308.952 330.247 308.945C330.247 308.938 330.251 308.933 330.257 308.933C331.167 308.76 332.085 308.636 333.006 308.532C333.929 308.452 334.854 308.373 335.782 308.362C336.709 308.349 337.639 308.354 338.564 308.44C339.488 308.522 340.416 308.639 341.303 308.923C341.313 308.927 341.319 308.938 341.315 308.947C341.312 308.955 341.302 308.96 341.293 308.958Z" fill="#3E4460"/>
<path d="M340.084 306.881C339.183 306.688 338.26 306.621 337.343 306.574C336.422 306.539 335.501 306.519 334.58 306.555C333.659 306.576 332.738 306.622 331.817 306.683C330.896 306.749 329.976 306.814 329.052 306.881C329.045 306.882 329.039 306.876 329.039 306.869C329.039 306.862 329.043 306.857 329.049 306.857C329.959 306.685 330.877 306.56 331.798 306.456C332.721 306.376 333.645 306.297 334.574 306.286C335.501 306.273 336.431 306.278 337.357 306.364C338.28 306.447 339.208 306.564 340.096 306.847C340.106 306.851 340.112 306.862 340.108 306.871C340.104 306.878 340.094 306.883 340.084 306.881Z" fill="#3E4460"/>
<path d="M291.514 302.92L278.008 302.873C278.008 302.873 260.621 308.842 258.335 310.413C256.05 311.983 255.695 313.171 255.695 313.171L291.478 313.296L291.514 302.92Z" fill="#FFC700"/>
<path d="M290.273 311.768C287.808 311.826 285.342 311.852 282.877 311.868C280.411 311.896 277.946 311.877 275.48 311.884C273.014 311.883 270.549 311.852 268.084 311.829C265.619 311.788 263.153 311.746 260.688 311.658C260.669 311.657 260.655 311.649 260.655 311.639C260.657 311.63 260.67 311.623 260.688 311.622C263.154 311.551 265.62 311.526 268.085 311.502C270.551 311.497 273.016 311.482 275.481 311.498C277.946 311.522 280.412 311.52 282.877 311.566C285.342 311.6 287.807 311.643 290.273 311.717C290.301 311.718 290.323 311.73 290.321 311.744C290.32 311.758 290.299 311.768 290.273 311.768Z" fill="#3E4460"/>
<path d="M255.696 314.378L291.478 314.503L291.483 313.289L255.7 313.164L255.696 314.378Z" fill="#3E4460"/>
<path d="M272.881 304.985C273.201 305.087 273.493 305.257 273.766 305.451C274.042 305.642 274.284 305.878 274.513 306.122C274.735 306.374 274.935 306.645 275.103 306.934C275.27 307.224 275.406 307.53 275.509 307.846C275.509 307.846 275.506 307.852 275.502 307.854C275.498 307.855 275.493 307.853 275.493 307.853C275.317 307.57 275.156 307.286 274.965 307.021C274.789 306.745 274.577 306.498 274.37 306.249C274.158 306.002 273.918 305.783 273.673 305.569C273.424 305.361 273.159 305.167 272.871 305.008C272.871 305.008 272.868 304.999 272.871 304.993C272.872 304.988 272.881 304.985 272.881 304.985Z" fill="#3E4460"/>
<path d="M269.969 306.009C270.288 306.11 270.582 306.281 270.854 306.474C271.13 306.666 271.372 306.902 271.601 307.145C271.822 307.397 272.023 307.668 272.191 307.958C272.358 308.248 272.493 308.554 272.596 308.87C272.596 308.87 272.594 308.875 272.59 308.877C272.586 308.879 272.581 308.876 272.581 308.876C272.405 308.594 272.244 308.309 272.053 308.044C271.877 307.769 271.665 307.521 271.457 307.272C271.245 307.026 271.006 306.807 270.761 306.592C270.511 306.385 270.247 306.19 269.959 306.031C269.959 306.031 269.955 306.023 269.958 306.016C269.961 306.012 269.969 306.009 269.969 306.009Z" fill="#3E4460"/>
<path d="M267.058 307.032C267.377 307.134 267.67 307.303 267.943 307.498C268.219 307.689 268.461 307.925 268.691 308.169C268.912 308.421 269.112 308.692 269.28 308.981C269.447 309.271 269.583 309.577 269.686 309.894C269.686 309.894 269.684 309.9 269.679 309.901C269.675 309.903 269.669 309.9 269.669 309.9C269.494 309.618 269.332 309.333 269.141 309.068C268.966 308.793 268.754 308.545 268.546 308.297C268.334 308.05 268.094 307.831 267.849 307.617C267.6 307.409 267.335 307.214 267.048 307.055C267.048 307.055 267.044 307.047 267.047 307.041C267.049 307.036 267.058 307.032 267.058 307.032Z" fill="#3E4460"/>
<path d="M316.392 173.378L341.613 304.27H325.262L295.863 192.34L292.732 303.077H275.29L269.873 169.299L316.392 173.378Z" fill="#3E4460"/>
<path d="M304.238 103.024L319.527 102.22C319.527 102.22 330.917 143.645 319.986 178.768C318.457 185.602 268.487 185.247 268.487 178.967C273.923 145.865 272.53 105.713 272.53 105.713L291.199 103.024H304.238Z" fill="#FFC700"/>
<path d="M287.985 97.9969H291.064C298.34 97.9969 304.239 92.0982 304.239 84.8219V70.7059C304.239 62.5791 297.651 55.9912 289.524 55.9912C281.397 55.9912 274.81 62.5791 274.81 70.7059V84.8219C274.81 92.0982 280.708 97.9969 287.985 97.9969Z" fill="#FFD4D9"/>
<path d="M288.968 105.243H304.239V75.6678H288.968V105.243Z" fill="#FFD4D9"/>
<path d="M289.972 117.444C286.783 117.444 288.968 107.585 288.968 105.243H304.239C304.239 107.586 293.162 117.444 289.972 117.444Z" fill="#FFD4D9"/>
<path d="M289.524 97.9968C289.524 97.9968 298.284 97.2303 300.586 89.0627L289.524 97.9968Z" fill="#FFD4D9"/>
<path d="M289.547 97.9762C290.781 97.775 291.986 97.415 293.136 96.9411C294.281 96.4547 295.377 95.8495 296.355 95.0871C296.859 94.7221 297.296 94.284 297.747 93.8575C298.143 93.3844 298.59 92.9438 298.908 92.4092C299.658 91.4107 300.122 90.2435 300.57 89.0745C300.573 89.0654 300.582 89.0604 300.587 89.0629C300.593 89.0654 300.596 89.0729 300.593 89.0812C300.253 90.2842 299.823 91.493 299.098 92.5372C298.781 93.0885 298.336 93.5474 297.936 94.0371C297.483 94.4802 297.037 94.9333 296.52 95.3016C295.509 96.0623 294.397 96.6925 293.215 97.1381C292.036 97.5854 290.804 97.9005 289.55 98.0111C289.536 98.0119 289.524 98.0044 289.523 97.9944C289.524 97.9861 289.534 97.9778 289.547 97.9762Z" fill="#3E4460"/>
<path d="M278.231 77.5499C278.747 77.5499 279.166 77.1317 279.166 76.6154V75.8747C279.166 75.3592 278.748 74.9402 278.231 74.9402C277.716 74.9402 277.298 75.3584 277.298 75.8747V76.6163C277.298 77.1317 277.716 77.5499 278.231 77.5499Z" fill="#3E4460"/>
<path d="M288.59 77.5499C289.107 77.5499 289.524 77.1317 289.524 76.6154V75.8747C289.524 75.3592 289.106 74.9402 288.59 74.9402C288.075 74.9402 287.656 75.3584 287.656 75.8747V76.6163C287.656 77.1317 288.074 77.5499 288.59 77.5499Z" fill="#3E4460"/>
<path d="M287.149 73.8899C287.374 73.5465 287.652 73.303 287.97 73.081C288.288 72.8648 288.649 72.7077 289.029 72.6179C289.41 72.5381 289.807 72.494 290.191 72.5622C290.576 72.6079 290.937 72.7551 291.256 72.9463C291.337 72.9953 291.364 73.1009 291.315 73.1832C291.282 73.2389 291.223 73.2689 291.162 73.2672L291.144 73.2664C290.797 73.2556 290.477 73.224 290.163 73.2622C289.851 73.293 289.546 73.3329 289.256 73.4451C288.965 73.5391 288.681 73.6604 288.4 73.8018C288.122 73.9398 287.84 74.1219 287.58 74.279L287.545 74.3006C287.407 74.3846 287.226 74.3405 287.143 74.2017C287.082 74.1027 287.089 73.9814 287.149 73.8899Z" fill="#3E4460"/>
<path d="M275.645 74.1702C275.769 73.7753 276.028 73.4319 276.337 73.1592C276.647 72.8849 277.02 72.697 277.404 72.5797C277.792 72.4766 278.184 72.406 278.573 72.4293C278.961 72.4442 279.34 72.5124 279.695 72.6454C279.785 72.6787 279.831 72.7793 279.798 72.8691C279.774 72.9314 279.72 72.9722 279.658 72.9805L279.652 72.9813C278.941 73.0761 278.274 73.1426 277.682 73.3912C277.387 73.5076 277.108 73.6481 276.855 73.8202C276.599 73.9914 276.377 74.2026 276.16 74.4404L276.145 74.457C276.036 74.5776 275.849 74.5867 275.729 74.477C275.64 74.3972 275.612 74.2766 275.645 74.1702Z" fill="#3E4460"/>
<path d="M281.717 77.5496L279.484 83.7625C279.3 84.2763 279.617 84.8275 280.151 84.9356C281.036 85.1151 282.42 85.2182 283.899 84.6504" fill="#FFD4D9"/>
<path d="M281.728 77.5745C281.436 78.5239 281.123 79.4667 280.804 80.4062L279.824 83.2179C279.748 83.4457 279.645 83.7001 279.586 83.9038C279.538 84.1083 279.583 84.332 279.707 84.5049C279.943 84.8749 280.497 84.8624 280.972 84.9372C281.944 85.0445 282.938 84.943 283.883 84.6429C283.891 84.6404 283.898 84.6446 283.9 84.6512C283.902 84.657 283.898 84.6637 283.892 84.6662C282.981 85.0744 281.957 85.2307 280.952 85.1659C280.701 85.1467 280.45 85.1151 280.202 85.0702C279.94 85.0386 279.658 84.8898 279.495 84.6587C279.326 84.4309 279.257 84.1258 279.321 83.8456C279.398 83.5729 279.486 83.3676 279.57 83.1256L280.604 80.333C280.957 79.4052 281.315 78.4799 281.694 77.5612C281.698 77.5504 281.709 77.5454 281.719 77.5496C281.727 77.5537 281.732 77.5645 281.728 77.5745Z" fill="#3E4460"/>
<path d="M287.263 85.2925L281.012 88.8101C281.666 94.2498 288.253 88.8284 287.263 85.2925Z" fill="white"/>
<path d="M304.239 74.2708C304.239 74.2708 292.181 75.4705 290.085 63.7579C290.085 63.7579 285.176 69.9226 274.808 69.9226C264.441 69.9226 265.52 59.7515 271.592 55.9911C278.295 51.84 287.742 51.6763 293.537 54.0183C293.537 54.0183 296.064 51.7993 298.099 52.5392C300.133 53.2792 299.702 56.2996 299.702 56.2996C299.702 56.2996 301.612 55.2978 302.538 56.4842C303.369 57.5516 301.798 59.7515 300.996 59.8745C305.377 59.4663 308.258 65.3035 304.239 74.2708Z" fill="#3E4460"/>
<path d="M290.024 63.3464C290.024 63.3464 289.408 66.9014 292.428 71.1548" stroke="#3E4460" stroke-width="0.244011" stroke-miterlimit="10" stroke-linecap="round"/>
<path d="M289.972 62.8027C288.59 67.6572 282.596 71.4017 277.094 71.4017" stroke="#3E4460" stroke-width="0.244011" stroke-miterlimit="10" stroke-linecap="round"/>
<path d="M300.655 77.4333C299.924 79.0911 299.959 81.3774 302.009 82.4191C303.707 83.2829 306.301 82.124 307.078 79.3023C307.558 77.5555 307.248 75.0955 305.591 74.3639C303.83 73.5873 301.385 75.7756 300.655 77.4333Z" fill="#FFD4D9"/>
<path d="M305.377 76.3382C303.753 75.1609 300.826 79.6919 303.033 80.949L305.377 76.3382Z" fill="#FFD4D9"/>
<path d="M305.358 76.3457C304.846 76.0431 304.252 76.28 303.835 76.6226C303.409 76.9767 303.056 77.4257 302.799 77.9204C302.543 78.4125 302.341 78.9513 302.336 79.505C302.307 80.0545 302.541 80.6174 303.031 80.935C303.034 80.9383 303.034 80.9441 303.031 80.9491C303.029 80.9532 303.021 80.9532 303.021 80.9532C302.473 80.7196 302.146 80.1019 302.145 79.5066C302.133 78.9064 302.322 78.3286 302.599 77.8139C302.885 77.3043 303.246 76.8246 303.729 76.4804C304.179 76.1337 304.891 75.9292 305.375 76.3208C305.381 76.3241 305.381 76.3324 305.376 76.3382C305.372 76.3449 305.363 76.3482 305.358 76.3457Z" fill="#EAA0AB"/>
<path d="M333.06 127.283C333.06 127.283 335.547 140.685 335.235 146.076C334.924 151.466 279.182 148.621 269.336 146.824L270.991 138.938C270.991 138.938 310.894 136.726 319.879 137.176L318.164 130.053L333.06 127.283Z" fill="#FFD4D9"/>
<path d="M270.992 130.597C270.992 130.597 266.144 143.336 263.074 147.778C260.003 152.221 217.239 123.5 209.389 118.397L209.513 108.826C209.513 108.826 247.192 127.333 254.631 132.39L257.97 124.605L270.992 130.597Z" fill="#FFD4D9"/>
<path d="M319.528 102.22C319.528 102.22 312.609 106.699 316.56 132.822L334.037 128.405C333.316 121.764 331.836 100.039 319.528 102.22Z" fill="#FFC700"/>
<path d="M316.911 106.675C315.797 110.205 315.532 113.928 315.476 117.605C315.473 121.294 315.717 124.981 316.168 128.644C316.258 129.337 316.326 130.032 316.431 130.723L316.696 132.621L323.207 131C326.796 130.122 330.386 129.243 333.986 128.405C334.014 128.398 334.037 128.4 334.037 128.408C334.037 128.415 334.019 128.426 333.994 128.434C330.427 129.406 326.851 130.338 323.275 131.27L316.424 133.025L316.102 130.768C315.997 130.076 315.929 129.378 315.841 128.683C315.414 125.008 315.152 121.307 315.217 117.602C315.316 113.913 315.645 110.167 316.87 106.661C316.883 106.622 316.903 106.594 316.914 106.6C316.924 106.605 316.923 106.638 316.911 106.675Z" fill="#3E4460"/>
<path d="M272.897 105.824C272.897 105.824 264.655 105.812 253.743 129.874L270.805 135.688C273.817 129.725 284.408 110.698 272.897 105.824Z" fill="#FFC700"/>
<path d="M272.464 132.357L272.518 127.517L272.596 122.68L272.669 117.843C272.694 116.231 272.712 114.619 272.704 113.006C272.704 112.993 272.711 112.983 272.719 112.984C272.727 112.984 272.733 112.993 272.734 113.004C272.879 114.613 272.916 116.23 272.948 117.843C272.96 119.458 272.961 121.072 272.925 122.685C272.884 124.299 272.855 125.913 272.777 127.525C272.708 129.137 272.626 130.749 272.508 132.359C272.506 132.378 272.496 132.392 272.484 132.39C272.472 132.388 272.464 132.373 272.464 132.357Z" fill="#3E4460"/>
<path d="M316.255 194.904C318.004 203.524 319.719 212.151 321.423 220.778C323.14 229.403 324.803 238.04 326.497 246.671C328.181 255.304 329.83 263.942 331.491 272.579C333.129 281.22 334.769 289.861 336.355 298.512C336.368 298.58 336.368 298.631 336.356 298.629C336.345 298.627 336.329 298.58 336.316 298.521C334.551 289.904 332.838 281.277 331.126 272.65C329.434 264.019 327.733 255.392 326.065 246.756C324.407 238.119 322.718 229.487 321.084 220.845C319.436 212.207 317.799 203.566 316.197 194.917C316.178 194.818 316.178 194.74 316.194 194.742C316.211 194.743 316.237 194.814 316.255 194.904Z" fill="#ADB4C9"/>
<path d="M292.732 194.913C292.508 203.696 292.25 212.478 291.981 221.258C291.725 230.04 291.415 238.82 291.134 247.602C290.844 256.383 290.52 265.16 290.206 273.941C289.87 282.72 289.535 291.499 289.146 300.276C289.142 300.344 289.132 300.395 289.121 300.39C289.111 300.386 289.104 300.336 289.106 300.275C289.313 291.491 289.574 282.709 289.834 273.927C290.116 265.146 290.388 256.366 290.695 247.586C291.011 238.805 291.296 230.025 291.636 221.246C291.962 212.467 292.3 203.689 292.672 194.91C292.677 194.81 292.693 194.733 292.709 194.74C292.725 194.746 292.734 194.822 292.732 194.913Z" fill="#ADB4C9"/>
<path d="M209.512 108.825C209.512 108.825 204.254 105.116 203.268 105.21C202.282 105.304 200.545 106.991 199.606 107.016C198.668 107.04 188.277 107.197 186.963 107.276C185.648 107.354 184.021 108.356 184.021 109.232C184.021 110.108 185.46 110.734 187.557 110.734C189.654 110.734 196.164 110.922 196.164 110.922C196.164 110.922 195.218 113.923 196.377 115.144C196.377 115.144 195.694 117.181 197.29 117.932C197.29 117.932 197.134 120.405 199.355 120.436C201.578 120.467 207.892 121.768 210.624 119.205" fill="#FFD4D9"/>
<path d="M197.321 118.38C198.037 118.271 198.75 118.163 199.462 118.054C200.175 117.941 200.89 117.851 201.599 117.728C202.149 117.631 202.71 117.548 203.234 117.395L203.243 117.393C203.378 117.361 203.511 117.29 203.625 117.197C204.182 116.781 204.311 115.969 204.045 115.302C204.044 115.297 204.047 115.29 204.052 115.288C204.057 115.287 204.062 115.288 204.065 115.293C204.422 115.921 204.361 116.839 203.748 117.349C203.618 117.459 203.466 117.548 203.291 117.595L203.301 117.592C202.748 117.768 202.193 117.865 201.635 117.956C200.919 118.062 200.204 118.166 199.484 118.235C198.765 118.311 198.045 118.373 197.323 118.41C197.315 118.411 197.308 118.404 197.307 118.395C197.309 118.387 197.314 118.38 197.321 118.38Z" fill="#E2A6AF"/>
<path d="M196.39 115.127C197.107 115.019 197.819 114.911 198.533 114.803C199.245 114.689 199.96 114.595 200.669 114.467C201.375 114.337 202.094 114.23 202.766 114.012L202.981 113.936L202.992 113.932L202.994 113.931C203.489 113.701 203.657 112.845 203.257 112.35C203.253 112.345 203.255 112.338 203.259 112.335C203.263 112.332 203.269 112.332 203.273 112.336C203.729 112.797 203.721 113.73 203.043 114.106L203.056 114.101L202.832 114.195C202.134 114.438 201.421 114.57 200.707 114.693C199.991 114.803 199.275 114.911 198.555 114.982C197.836 115.058 197.116 115.122 196.393 115.156C196.385 115.156 196.377 115.149 196.377 115.141C196.377 115.135 196.383 115.128 196.39 115.127Z" fill="#E2A6AF"/>
<path d="M196.224 110.897C196.536 110.85 196.848 110.821 197.16 110.798C197.472 110.768 197.783 110.766 198.095 110.748C198.407 110.736 198.719 110.742 199.031 110.742C199.344 110.753 199.657 110.764 199.972 110.804C199.972 110.804 199.977 110.809 199.977 110.815C199.977 110.82 199.974 110.825 199.974 110.825C199.664 110.881 199.352 110.909 199.04 110.937C198.727 110.954 198.414 110.975 198.102 110.98C197.788 110.979 197.476 110.994 197.162 110.98C196.85 110.973 196.536 110.96 196.224 110.929C196.224 110.929 196.217 110.921 196.218 110.913C196.217 110.904 196.224 110.897 196.224 110.897Z" fill="#E2A6AF"/>
<path d="M209.027 114.22C207.496 114.076 205.958 113.507 204.813 112.424C204.61 112.215 204.403 112.006 204.235 111.765C204.06 111.569 203.858 111.164 203.898 111.255L203.893 111.274L203.858 111.376C203.82 111.494 203.77 111.607 203.723 111.722C203.618 111.946 203.507 112.168 203.364 112.372C203.09 112.784 202.734 113.149 202.31 113.417C201.976 113.637 201.594 113.78 201.205 113.858C201.009 113.89 200.814 113.933 200.615 113.928L200.312 113.938C200.115 113.898 200.081 113.755 200.035 113.665C199.813 112.867 199.882 112.1 199.872 111.326C199.886 110.554 199.933 109.786 199.892 109.019C199.877 108.635 199.848 108.25 199.856 107.861C199.87 107.492 199.906 107.025 200.267 106.813C200.277 106.807 200.287 106.806 200.29 106.812C200.292 106.817 200.287 106.825 200.278 106.832C199.946 107.055 199.937 107.495 199.939 107.862C199.949 108.244 199.992 108.627 200.022 109.012C200.09 109.786 200.062 110.56 200.069 111.329C200.081 112.087 200.04 112.892 200.242 113.584C200.271 113.659 200.331 113.731 200.329 113.714L200.604 113.701C200.793 113.704 200.976 113.662 201.159 113.632C201.524 113.556 201.877 113.425 202.189 113.222C202.585 112.979 202.921 112.639 203.183 112.25C203.319 112.059 203.426 111.847 203.526 111.635C203.572 111.527 203.62 111.418 203.657 111.306L203.686 111.223L203.732 111.058C203.763 110.951 203.792 110.819 203.819 110.7C204.16 111.27 204.2 111.402 204.396 111.646C204.553 111.882 204.749 112.086 204.94 112.295C206.025 113.362 207.517 113.969 209.029 114.189C209.047 114.191 209.059 114.199 209.058 114.209C209.057 114.216 209.043 114.221 209.027 114.22Z" fill="#E2A6AF"/>
<path d="M199.366 120.428C199.82 120.404 200.274 120.373 200.727 120.334C201.179 120.29 201.63 120.246 202.078 120.171C202.524 120.098 202.971 120.013 203.395 119.866C203.789 119.722 204.308 119.506 204.304 119.017L204.31 119.01L204.315 119.016C204.352 119.248 204.22 119.484 204.036 119.624C203.854 119.772 203.643 119.873 203.429 119.958C202.997 120.117 202.547 120.216 202.096 120.286C201.644 120.352 201.19 120.403 200.733 120.425C200.278 120.45 199.822 120.46 199.366 120.444C199.361 120.444 199.357 120.44 199.357 120.436C199.357 120.436 199.361 120.428 199.366 120.428Z" fill="#E2A6AF"/>
<path d="M272.165 138.99C272.165 138.99 266.907 135.281 265.921 135.375C264.935 135.469 263.198 137.157 262.26 137.181C261.321 137.206 250.931 137.362 249.616 137.441C248.302 137.52 246.674 138.521 246.674 139.397C246.674 140.273 248.114 140.899 250.211 140.899C252.307 140.899 258.817 141.087 258.817 141.087C258.817 141.087 257.872 144.089 259.03 145.309C259.03 145.309 258.347 147.346 259.944 148.097C259.944 148.097 259.787 150.57 262.009 150.602C264.231 150.633 268.268 151.165 271.961 146.47" fill="#FFD4D9"/>
<path d="M272.072 138.943C270.99 138.202 269.894 137.481 268.776 136.797C268.216 136.457 267.649 136.127 267.066 135.835C266.776 135.686 266.476 135.554 266.17 135.465C265.873 135.37 265.556 135.525 265.271 135.658C264.693 135.952 264.162 136.342 263.602 136.688C263.321 136.861 263.035 137.029 262.72 137.152C262.398 137.295 262.042 137.255 261.726 137.271L257.793 137.364L249.928 137.543C249.274 137.529 248.656 137.712 248.082 138C247.534 138.29 246.945 138.706 246.798 139.279C246.743 139.562 246.896 139.84 247.129 140.035C247.363 140.233 247.658 140.366 247.957 140.471C248.564 140.672 249.214 140.753 249.86 140.777L258.963 140.981L258.848 141.38L258.783 141.643C258.742 141.82 258.706 141.997 258.675 142.175C258.612 142.531 258.573 142.891 258.563 143.25C258.552 143.608 258.57 143.97 258.652 144.313C258.685 144.487 258.748 144.653 258.82 144.809C258.863 144.884 258.894 144.967 258.946 145.036L259.142 145.289L259.087 145.478L259.055 145.619C259.036 145.714 259.018 145.81 259.009 145.905C258.984 146.096 258.979 146.29 258.992 146.481C259.023 146.86 259.128 147.242 259.37 147.531C259.453 147.632 259.543 147.727 259.65 147.803C259.698 147.847 259.753 147.884 259.812 147.914L260.04 148.044C260.031 148.217 260.036 148.236 260.037 148.327L260.055 148.553C260.07 148.704 260.096 148.852 260.133 148.999C260.206 149.291 260.325 149.571 260.501 149.809C260.844 150.306 261.462 150.523 262.064 150.523C263.308 150.57 264.548 150.608 265.768 150.39C266.979 150.163 268.156 149.714 269.189 149.03C270.223 148.349 271.129 147.481 271.909 146.515C271.935 146.485 271.959 146.465 271.962 146.47C271.964 146.475 271.948 146.5 271.925 146.529C271.162 147.51 270.266 148.395 269.234 149.098C268.201 149.801 267.017 150.27 265.791 150.513C264.56 150.746 263.299 150.719 262.063 150.682C261.439 150.692 260.741 150.459 260.362 149.914C259.974 149.412 259.843 148.673 259.849 148.152L259.716 148.077C259.651 148.043 259.59 148.004 259.535 147.955C259.415 147.871 259.314 147.765 259.219 147.653C258.679 146.991 258.732 145.999 258.919 145.329C258.001 144.201 258.403 142.275 258.674 141.193L249.854 141.007C249.193 140.979 248.526 140.897 247.887 140.683C247.571 140.572 247.256 140.431 246.987 140.204C246.721 139.986 246.507 139.619 246.583 139.237C246.783 138.511 247.412 138.118 247.985 137.804C248.577 137.503 249.256 137.309 249.918 137.326L257.789 137.182L261.724 137.114C262.058 137.099 262.381 137.142 262.671 137.011C262.969 136.899 263.252 136.735 263.531 136.567C264.089 136.229 264.622 135.842 265.218 135.546C265.514 135.415 265.844 135.245 266.2 135.353C266.524 135.45 266.825 135.588 267.116 135.74C267.702 136.042 268.266 136.378 268.823 136.726C269.936 137.423 271.022 138.159 272.093 138.917C272.142 138.952 272.175 138.985 272.168 138.99C272.156 138.995 272.116 138.974 272.072 138.943Z" fill="#E2A6AF"/>
<path d="M319.891 137.161C320.506 137.113 321.125 137.122 321.741 137.159C322.358 137.192 322.972 137.275 323.582 137.385C324.189 137.503 324.791 137.665 325.372 137.884C325.946 138.119 326.506 138.405 326.985 138.797C326.99 138.8 326.99 138.805 326.986 138.81C326.983 138.814 326.978 138.815 326.974 138.814C326.444 138.499 325.885 138.255 325.309 138.06C324.733 137.858 324.137 137.726 323.54 137.601C322.942 137.475 322.335 137.406 321.727 137.331C321.118 137.266 320.506 137.217 319.892 137.191C319.885 137.191 319.88 137.184 319.88 137.176C319.88 137.168 319.885 137.162 319.891 137.161Z" fill="#E2A6AF"/>
<path d="M308.206 183.025C308.641 183.918 309.194 184.747 309.826 185.506C310.466 186.257 311.187 186.94 312.001 187.492C312.806 188.055 313.692 188.509 314.637 188.788C315.569 189.121 316.56 189.221 317.55 189.31C317.557 189.311 317.563 189.316 317.563 189.322C317.563 189.327 317.557 189.331 317.55 189.331C316.556 189.337 315.542 189.275 314.58 188.974C313.612 188.706 312.689 188.265 311.87 187.681C311.048 187.101 310.302 186.412 309.685 185.62C309.067 184.831 308.543 183.966 308.177 183.036C308.173 183.025 308.176 183.014 308.184 183.012C308.193 183.01 308.202 183.016 308.206 183.025Z" fill="#ADB4C9"/>
<path d="M287.367 109.414C287.094 110.776 286.894 112.153 286.783 113.535C286.681 114.912 286.646 116.317 286.942 117.66C287.102 118.316 287.361 118.993 287.89 119.393C288.42 119.759 289.153 119.892 289.812 119.886C291.178 119.861 292.445 119.171 293.589 118.428C295.881 116.882 297.906 114.957 299.892 113.023C301.876 111.079 303.791 109.066 305.711 107.055C305.726 107.039 305.741 107.031 305.744 107.036C305.748 107.04 305.739 107.055 305.727 107.069C303.878 109.145 301.99 111.187 300.03 113.162C298.051 115.112 296.042 117.061 293.715 118.621C292.551 119.364 291.258 120.077 289.814 120.102C289.102 120.097 288.383 119.98 287.766 119.556C287.175 119.096 286.922 118.377 286.766 117.701C286.478 116.318 286.534 114.907 286.66 113.524C286.795 112.137 287.026 110.763 287.337 109.407C287.345 109.376 287.357 109.354 287.365 109.358C287.372 109.361 287.373 109.386 287.367 109.414Z" fill="#E28E33"/>
<path d="M295.846 192.336C295.627 191.852 295.437 191.357 295.263 190.856C295.083 190.356 294.941 189.844 294.798 189.332C294.664 188.817 294.562 188.293 294.487 187.764C294.437 187.237 294.394 186.682 294.573 186.171C294.573 186.171 294.58 186.165 294.585 186.167C294.59 186.169 294.593 186.177 294.593 186.177C294.511 186.699 294.592 187.222 294.68 187.737C294.769 188.254 294.896 188.764 295.021 189.275C295.146 189.787 295.298 190.292 295.436 190.802C295.582 191.308 295.728 191.814 295.875 192.325C295.877 192.331 295.872 192.338 295.863 192.34C295.855 192.344 295.848 192.341 295.846 192.336Z" fill="#ADB4C9"/>
<path d="M320.948 77.2728C316.931 73.391 312.641 80.171 320.948 84.0336C329.255 80.171 324.965 73.391 320.948 77.2728Z" stroke="#3E4460" stroke-width="0.505398" stroke-miterlimit="10"/>
<path d="M309.67 40.4409C306.703 37.5743 303.534 42.5817 309.67 45.435C315.806 42.5817 312.637 37.5735 309.67 40.4409Z" stroke="#3E4460" stroke-width="0.373291" stroke-miterlimit="10"/>
<path d="M256.413 49.7524C254.156 47.5716 251.747 51.381 256.413 53.5501C261.081 51.381 258.671 47.5725 256.413 49.7524Z" stroke="#3E4460" stroke-width="0.505398" stroke-miterlimit="10"/>
</svg>
