<svg width="289" height="85" viewBox="0 0 289 85" fill="none" xmlns="http://www.w3.org/2000/svg">
<g clip-path="url(#clip0_119_3996)">
<path d="M93.3981 43.6934C91.2288 29.8276 76.4477 20.6227 60.3801 23.1365C44.3147 25.6498 33.0488 38.9284 35.2178 52.7931C37.3873 66.6602 52.1707 75.8646 68.236 73.3513C69.9805 73.0783 71.6647 72.6784 73.2853 72.1661L73.295 72.1622C77.0736 70.5837 79.4402 74.818 88.7592 75.7478C90.6734 75.9397 90.8206 75.4277 89.1712 74.1109C86.1873 71.7343 83.022 67.5941 85.2736 65.26C85.3452 65.2014 86.22 64.3477 86.5508 64.0064C91.834 58.4685 94.5664 51.1615 93.3977 43.6911" fill="#FFC700"/>
</g>
<circle cx="40.2007" cy="31.8113" r="24.8196" fill="white"/>
<g clip-path="url(#clip1_119_3996)">
<path d="M2.93792 26.1873C4.41468 12.2307 18.7196 2.30196 34.8923 4.01321C51.0628 5.72422 62.9754 18.4259 61.4988 32.3814C60.0219 46.3391 45.7148 56.2677 29.5443 54.5567C27.7884 54.3709 26.0863 54.0552 24.4423 53.6242L24.4324 53.6208C20.5799 52.2322 18.427 56.579 9.16567 57.9713C7.26346 58.2581 7.09098 57.7541 8.6728 56.3569C11.5348 53.8348 14.4902 49.5423 12.1252 47.3231C12.0508 47.268 11.1346 46.459 10.7872 46.1345C5.23504 40.8663 2.14254 33.7043 2.93816 26.185" fill="#FFC700"/>
</g>
<path d="M121.864 56.7775C119.671 56.7775 117.707 56.4216 115.97 55.7097C114.233 54.9979 112.837 53.9443 111.784 52.5491C110.759 51.1538 110.218 49.4739 110.161 47.5092H117.934C118.048 48.6196 118.433 49.4739 119.088 50.0718C119.742 50.6413 120.597 50.9261 121.65 50.9261C122.732 50.9261 123.586 50.684 124.213 50.2C124.839 49.6874 125.153 48.9898 125.153 48.1071C125.153 47.3668 124.896 46.7546 124.384 46.2705C123.9 45.7865 123.288 45.3878 122.547 45.0746C121.835 44.7614 120.81 44.4055 119.472 44.0068C117.536 43.4089 115.955 42.8109 114.731 42.213C113.507 41.615 112.453 40.7323 111.57 39.5649C110.688 38.3974 110.246 36.8741 110.246 34.9948C110.246 32.2043 111.257 30.026 113.279 28.4599C115.301 26.8654 117.934 26.0681 121.18 26.0681C124.483 26.0681 127.146 26.8654 129.167 28.4599C131.189 30.026 132.271 32.2185 132.413 35.0375H124.512C124.455 34.0694 124.099 33.3148 123.444 32.7738C122.789 32.2043 121.949 31.9196 120.924 31.9196C120.041 31.9196 119.33 32.1616 118.789 32.6456C118.248 33.1012 117.977 33.7704 117.977 34.6531C117.977 35.6212 118.433 36.3758 119.344 36.9168C120.255 37.4578 121.679 38.0415 123.615 38.6679C125.551 39.3228 127.117 39.9493 128.313 40.5472C129.538 41.1452 130.591 42.0136 131.474 43.1526C132.357 44.2916 132.798 45.758 132.798 47.5519C132.798 49.2603 132.357 50.8122 131.474 52.2074C130.62 53.6026 129.367 54.7131 127.715 55.5389C126.064 56.3646 124.113 56.7775 121.864 56.7775ZM160.458 44.1777C160.458 44.8611 160.415 45.5729 160.33 46.3132H143.8C143.914 47.7939 144.384 48.9329 145.21 49.7301C146.064 50.4989 147.103 50.8833 148.328 50.8833C150.15 50.8833 151.417 50.1145 152.129 48.5769H159.903C159.504 50.143 158.778 51.5525 157.724 52.8053C156.699 54.0582 155.404 55.0406 153.838 55.7524C152.271 56.4643 150.52 56.8202 148.584 56.8202C146.249 56.8202 144.171 56.3219 142.348 55.3253C140.526 54.3287 139.102 52.905 138.077 51.0542C137.052 49.2034 136.54 47.0393 136.54 44.5621C136.54 42.0848 137.038 39.9208 138.034 38.07C139.059 36.2192 140.483 34.7954 142.306 33.7988C144.128 32.8023 146.221 32.304 148.584 32.304C150.891 32.304 152.941 32.788 154.735 33.7561C156.528 34.7243 157.924 36.1053 158.92 37.8991C159.945 39.693 160.458 41.7859 160.458 44.1777ZM152.983 42.2557C152.983 41.0028 152.556 40.0062 151.702 39.2659C150.848 38.5256 149.78 38.1554 148.499 38.1554C147.274 38.1554 146.235 38.5113 145.381 39.2232C144.555 39.935 144.042 40.9459 143.843 42.2557H152.983ZM172.314 24.8722V56.4785H165.01V24.8722H172.314ZM190.265 38.7106H186.335V56.4785H179.032V38.7106H176.384V32.6456H179.032V31.9623C179.032 29.0294 179.872 26.8084 181.552 25.2993C183.232 23.7617 185.695 22.9929 188.941 22.9929C189.482 22.9929 189.88 23.0071 190.137 23.0356V29.2287C188.741 29.1433 187.759 29.3426 187.19 29.8267C186.62 30.3108 186.335 31.1792 186.335 32.4321V32.6456H190.265V38.7106ZM215.965 26.4952V32.3467H208.021V56.4785H200.717V32.3467H192.773V26.4952H215.965ZM218.877 44.5194C218.877 42.0706 219.333 39.9208 220.244 38.07C221.184 36.2192 222.451 34.7954 224.045 33.7988C225.64 32.8023 227.42 32.304 229.384 32.304C231.064 32.304 232.531 32.6456 233.784 33.329C235.065 34.0124 236.047 34.9093 236.731 36.0198V32.6456H244.034V56.4785H236.731V53.1043C236.019 54.2148 235.022 55.1118 233.741 55.7951C232.488 56.4785 231.022 56.8202 229.342 56.8202C227.405 56.8202 225.64 56.3219 224.045 55.3253C222.451 54.3002 221.184 52.8623 220.244 51.0115C219.333 49.1322 218.877 46.9681 218.877 44.5194ZM236.731 44.5621C236.731 42.7397 236.218 41.3018 235.193 40.2482C234.197 39.1947 232.972 38.6679 231.52 38.6679C230.068 38.6679 228.829 39.1947 227.804 40.2482C226.807 41.2733 226.309 42.697 226.309 44.5194C226.309 46.3417 226.807 47.7939 227.804 48.8759C228.829 49.9295 230.068 50.4562 231.52 50.4562C232.972 50.4562 234.197 49.9295 235.193 48.8759C236.218 47.8224 236.731 46.3844 236.731 44.5621ZM257.321 24.8722V56.4785H250.017V24.8722H257.321ZM277.877 56.4785L270.617 46.4841V56.4785H263.313V24.8722H270.617V42.3411L277.835 32.6456H286.847L276.938 44.6048L286.932 56.4785H277.877Z" fill="#FFC700"/>
<defs>
<clipPath id="clip0_119_3996">
<rect width="63.6146" height="65.8866" fill="white" transform="matrix(-0.999592 0.0285497 0.0285497 0.999592 95.7106 17.1157)"/>
</clipPath>
<clipPath id="clip1_119_3996">
<rect width="63.6146" height="65.8866" fill="white"/>
</clipPath>
</defs>
</svg>
